<svg xmlns="http://www.w3.org/2000/svg" viewBox="0 0 17.6 17.6" fill="none">
  <path d="M8.81719 17.6C5.65469 17.6 2.76719 15.95 1.18594 13.2C-0.395313 10.4844 -0.395313 7.15 1.18594 4.4C2.76719 1.68438 5.65469 0 8.81719 0C11.9453 0 14.8328 1.68438 16.4141 4.4C17.9953 7.15 17.9953 10.4844 16.4141 13.2C14.8328 15.95 11.9453 17.6 8.81719 17.6ZM7.44219 11.55C6.96094 11.55 6.61719 11.9281 6.61719 12.375C6.61719 12.8563 6.96094 13.2 7.44219 13.2H10.1922C10.6391 13.2 11.0172 12.8563 11.0172 12.375C11.0172 11.9281 10.6391 11.55 10.1922 11.55H9.91719V8.525C9.91719 8.07813 9.53906 7.7 9.09219 7.7H7.44219C6.96094 7.7 6.61719 8.07813 6.61719 8.525C6.61719 9.00625 6.96094 9.35 7.44219 9.35H8.26719V11.55H7.44219ZM8.81719 4.4C8.19844 4.4 7.71719 4.91563 7.71719 5.5C7.71719 6.11875 8.19844 6.6 8.81719 6.6C9.40156 6.6 9.91719 6.11875 9.91719 5.5C9.91719 4.91563 9.40156 4.4 8.81719 4.4Z" fill="#559CEC"/>
</svg>
